<?xml version="1.0" encoding="utf-8"?>
<!-- Generator: Adobe Illustrator 15.1.0, SVG Export Plug-In . SVG Version: 6.00 Build 0)  -->
<!DOCTYPE svg PUBLIC "-//W3C//DTD SVG 1.1//EN" "http://www.w3.org/Graphics/SVG/1.1/DTD/svg11.dtd">
<svg version="1.1" id="Layer_1" xmlns:sketch="http://www.bohemiancoding.com/sketch/ns"
	 xmlns="http://www.w3.org/2000/svg" xmlns:xlink="http://www.w3.org/1999/xlink" x="0px" y="0px" width="479px" height="106px"
	 viewBox="0 0 479 106" enable-background="new 0 0 479 106" xml:space="preserve">
<title>FranklinCountyLogo-02 Copy</title>
<desc>Created with Sketch.</desc>
<g id="Page-1" sketch:type="MSPage">
	<g id="Desktop-Home-1" transform="translate(-84.000000, -34.000000)" sketch:type="MSArtboardGroup">
		<g id="FranklinCountyLogo-02-Copy" transform="translate(84.000000, 34.000000)" sketch:type="MSLayerGroup">
			<g id="Layer_1_1_" sketch:type="MSShapeGroup">
				<path id="Shape" fill="#FFFFFF" d="M77.412,42.486v-0.232V28.124c0-4.411-3.584-8.027-8.031-8.027
					c-1.162,0-2.257,0.232-3.252,0.697c-0.83-3.549-4.016-6.203-7.833-6.203c-3.817,0-7.003,2.653-7.833,6.203
					c-0.996-0.431-2.091-0.697-3.252-0.697c-3.817,0-7.002,2.653-7.833,6.203c-0.996-0.431-2.09-0.697-3.252-0.697
					c-4.414,0-8.032,3.582-8.032,8.027v16.584l0.033,2.488v8.589c0,16.618,13.507,30.117,30.135,30.117
					c16.627,0,30.201-13.499,30.201-30.117v-5.538C88.463,49.152,83.684,43.646,77.412,42.486L77.412,42.486z M83.485,61.291
					c0,13.865-11.284,25.142-25.156,25.142S33.172,75.156,33.172,61.291V50.247l-0.033-2.487V33.663
					c0-1.692,1.361-3.052,3.054-3.052c1.692,0,3.053,1.36,3.053,3.052v20.199h4.978V33.663v-5.539c0-1.692,1.361-3.052,3.053-3.052
					c1.693,0,3.053,1.36,3.053,3.052v21.36h4.979v-21.36v-5.506c0-1.691,1.36-3.052,3.053-3.052c1.692,0,3.053,1.36,3.053,3.052
					v5.506v18.408h4.978V28.124c0-1.692,1.361-3.052,3.053-3.052c1.693,0,3.054,1.36,3.054,3.052V42.22v4.975v9.784
					c-6.372,2.09-10.985,8.094-10.985,15.125h4.978c0-6.036,4.912-10.944,10.952-10.944l0,0v-13.6
					c3.518,1.061,6.074,4.345,6.074,8.192v5.538H83.485z"/>
			</g>
			<text transform="matrix(1 0 0 1 108.665 84.9082)" fill="#FFFFFF" font-family="'RobotoSlab-Bold'" font-size="25.5">Family &amp; Community Services</text>
			<g id="Brandon" transform="translate(108.860497, 25.000000)" sketch:type="MSShapeGroup">
				<path id="Shape_1_" fill="#FFFFFF" d="M0.616,1.648c0-0.426,0.331-0.757,0.757-0.757h16.648c0.425,0,0.757,0.378,0.757,0.757
					v4.398c0,0.426-0.332,0.757-0.757,0.757H6.907v5.769h9.175c0.378,0,0.757,0.378,0.757,0.757v4.398
					c0,0.426-0.378,0.757-0.757,0.757H6.907v9.789c0,0.426-0.378,0.757-0.757,0.757H1.42c-0.426,0-0.757-0.379-0.757-0.757V1.648
					H0.616z"/>
				<path id="Shape_2_" fill="#FFFFFF" d="M23.271,1.648c0-0.426,0.331-0.757,0.756-0.757h12.014c4.824,0,8.75,3.878,8.75,8.702
					c0,3.688-2.459,6.668-5.959,8.086l5.486,10.215c0.284,0.52,0,1.182-0.662,1.182h-5.345c-0.331,0-0.567-0.189-0.662-0.378
					L32.352,18.01h-2.791v10.262c0,0.426-0.378,0.757-0.757,0.757h-4.777c-0.425,0-0.756-0.379-0.756-0.757V1.648L23.271,1.648z
					 M35.521,12.903c1.655,0,3.074-1.513,3.074-3.216c0-1.702-1.419-3.074-3.074-3.074h-5.959v6.29H35.521L35.521,12.903z"/>
				<path id="Shape_3_" fill="#FFFFFF" d="M46.588,27.989l12.581-27.05c0.142-0.236,0.425-0.426,0.662-0.426h0.426
					c0.284,0,0.567,0.189,0.662,0.426L73.5,27.989c0.237,0.52-0.094,1.041-0.662,1.041h-4.446c-0.709,0-1.041-0.236-1.419-0.993
					l-1.466-3.169H54.581l-1.466,3.216c-0.189,0.474-0.662,0.946-1.466,0.946H47.25C46.636,29.029,46.352,28.509,46.588,27.989
					L46.588,27.989z M63.095,19.382l-3.074-6.621l0,0l-3.027,6.621H63.095L63.095,19.382z"/>
				<path id="Shape_4_" fill="#FFFFFF" d="M76.764,1.222c0-0.426,0.378-0.709,0.757-0.709h0.993L94.547,15.93h0.047V1.648
					c0-0.426,0.331-0.757,0.757-0.757h4.872c0.426,0,0.757,0.378,0.757,0.757v27.05c0,0.425-0.378,0.709-0.757,0.709H99.56
					c-0.142,0-0.426-0.142-0.521-0.188L83.148,13.281h-0.047v14.991c0,0.426-0.331,0.757-0.757,0.757h-4.777
					c-0.425,0-0.756-0.379-0.756-0.757L76.764,1.222L76.764,1.222z"/>
				<path id="Shape_5_" fill="#FFFFFF" d="M107.885,1.837c0-0.52,0.426-0.946,0.946-0.946h4.683c0.52,0,0.946,0.426,0.946,0.946
					V12.43l8.939-11.113c0.142-0.189,0.521-0.426,0.757-0.426h5.061c0.757,0,1.183,0.898,0.709,1.466l-9.412,11.775l10.264,13.336
					c0.426,0.614,0,1.466-0.757,1.466h-5.534c-0.284,0-0.662-0.142-0.709-0.284l-9.27-12.626v11.964c0,0.52-0.426,0.946-0.946,0.946
					h-4.683c-0.567,0-0.946-0.426-0.946-0.946V1.837H107.885z"/>
				<path id="Shape_6_" fill="#FFFFFF" d="M134.938,1.648c0-0.426,0.331-0.757,0.757-0.757h4.776c0.426,0,0.757,0.378,0.757,0.757
					v21.47h9.602c0.426,0,0.757,0.378,0.757,0.757v4.398c0,0.426-0.331,0.757-0.757,0.757h-15.135c-0.426,0-0.757-0.379-0.757-0.757
					V1.648L134.938,1.648z"/>
				<path id="Shape_7_" fill="#FFFFFF" d="M155.465,1.648c0-0.426,0.378-0.757,0.757-0.757h4.824c0.379,0,0.757,0.378,0.757,0.757
					v26.625c0,0.426-0.378,0.757-0.757,0.757h-4.824c-0.426,0-0.757-0.379-0.757-0.757V1.648L155.465,1.648z"/>
				<path id="Shape_8_" fill="#FFFFFF" d="M168.708,1.222c0-0.426,0.379-0.709,0.757-0.709h0.993l16.033,15.417h0.048V1.648
					c0-0.426,0.331-0.757,0.757-0.757h4.824c0.426,0,0.756,0.378,0.756,0.757v27.05c0,0.425-0.378,0.709-0.756,0.709h-0.615
					c-0.142,0-0.426-0.142-0.52-0.188l-15.893-15.938h-0.047v14.991c0,0.426-0.331,0.757-0.757,0.757h-4.776
					c-0.426,0-0.758-0.379-0.758-0.757L168.708,1.222L168.708,1.222z"/>
				<path id="Shape_9_" fill="#FFFFFF" d="M221.16,0.466c4.02,0,7,1.229,9.743,3.736c0.378,0.331,0.378,0.804,0.047,1.135
					L227.829,8.6c-0.284,0.284-0.71,0.284-0.993,0c-1.467-1.324-3.453-2.034-5.439-2.034c-4.54,0-7.898,3.783-7.898,8.276
					c0,4.445,3.358,8.182,7.898,8.182c1.892,0,3.926-0.662,5.392-1.939c0.284-0.236,0.804-0.236,1.041,0.047l3.121,3.358
					c0.284,0.284,0.236,0.804-0.047,1.088c-2.743,2.648-6.196,3.878-9.791,3.878c-8.04,0-14.52-6.385-14.52-14.424
					C206.64,6.944,213.119,0.466,221.16,0.466L221.16,0.466z"/>
				<path id="Shape_10_" fill="#FFFFFF" d="M248.024,0.466c8.04,0,14.473,6.479,14.473,14.518s-6.433,14.423-14.473,14.423
					s-14.426-6.384-14.426-14.423S239.984,0.466,248.024,0.466L248.024,0.466z M248.024,22.976c4.445,0,8.04-3.641,8.04-7.992
					c0-4.445-3.642-8.087-8.04-8.087s-7.993,3.642-7.993,8.087C240.031,19.382,243.626,22.976,248.024,22.976L248.024,22.976z"/>
				<path id="Shape_11_" fill="#FFFFFF" d="M266.943,1.648c0-0.426,0.378-0.757,0.757-0.757h4.966c0.426,0,0.757,0.378,0.757,0.757
					v16.268c0,2.837,2.081,5.06,4.966,5.06s5.014-2.27,5.014-5.06V1.648c0-0.426,0.331-0.757,0.757-0.757h4.966
					c0.426,0,0.757,0.378,0.757,0.757v16.599c0,6.1-5.155,11.16-11.493,11.16c-6.29,0-11.398-5.06-11.398-11.16V1.648H266.943z"/>
				<path id="Shape_12_" fill="#FFFFFF" d="M296.314,1.222c0-0.426,0.378-0.709,0.757-0.709h0.993l16.033,15.417h0.047V1.648
					c0-0.426,0.331-0.757,0.757-0.757h4.824c0.426,0,0.757,0.378,0.757,0.757v27.05c0,0.425-0.378,0.709-0.757,0.709h-0.662
					c-0.142,0-0.426-0.142-0.52-0.188l-15.845-15.938h-0.048v14.991c0,0.426-0.33,0.757-0.756,0.757h-4.777
					c-0.426,0-0.757-0.379-0.757-0.757L296.314,1.222L296.314,1.222z"/>
				<path id="Shape_13_" fill="#FFFFFF" d="M331.03,6.803h-5.771c-0.426,0-0.757-0.378-0.757-0.757V1.648
					c0-0.426,0.331-0.757,0.757-0.757h17.831c0.425,0,0.756,0.378,0.756,0.757v4.398c0,0.426-0.331,0.757-0.756,0.757h-5.771v21.47
					c0,0.426-0.379,0.757-0.757,0.757h-4.824c-0.379,0-0.757-0.379-0.757-0.757V6.803H331.03z"/>
				<path id="Shape_14_" fill="#FFFFFF" d="M354.489,15.457l-8.893-13.43c-0.331-0.521,0-1.183,0.662-1.183h5.25
					c0.331,0,0.521,0.189,0.662,0.378l5.534,8.276l5.581-8.229c0.142-0.142,0.283-0.378,0.662-0.378h5.25
					c0.662,0,0.945,0.662,0.662,1.182l-8.986,13.383v12.816c0,0.426-0.379,0.757-0.757,0.757h-4.777
					c-0.426,0-0.757-0.379-0.757-0.757V15.457H354.489z"/>
			</g>
		</g>
	</g>
</g>
</svg>
