<?xml version="1.0" encoding="utf-8"?>
<!-- Generator: Adobe Illustrator 15.1.0, SVG Export Plug-In . SVG Version: 6.00 Build 0)  -->
<!DOCTYPE svg PUBLIC "-//W3C//DTD SVG 1.1//EN" "http://www.w3.org/Graphics/SVG/1.1/DTD/svg11.dtd">
<svg version="1.1" id="Layer_1" xmlns:sketch="http://www.bohemiancoding.com/sketch/ns"
	 xmlns="http://www.w3.org/2000/svg" xmlns:xlink="http://www.w3.org/1999/xlink" x="0px" y="0px" width="479px" height="106px"
	 viewBox="0 0 479 106" enable-background="new 0 0 479 106" xml:space="preserve">
<title>FranklinCountyLogo-02 Copy</title>
<desc>Created with Sketch.</desc>
<g id="Page-1" sketch:type="MSPage">
	<g id="Desktop-Home-1" transform="translate(-84.000000, -34.000000)" sketch:type="MSArtboardGroup">
		<g id="FranklinCountyLogo-02-Copy" transform="translate(84.000000, 34.000000)" sketch:type="MSLayerGroup">
			<g id="Layer_1_1_" sketch:type="MSShapeGroup">
				<path id="Shape" fill="#FFFFFF" d="M77.412,42.486v-0.232v-14.13c0-4.411-3.584-8.027-8.031-8.027
					c-1.162,0-2.257,0.232-3.252,0.697c-0.83-3.549-4.016-6.203-7.833-6.203s-7.003,2.653-7.833,6.203
					c-0.996-0.431-2.091-0.697-3.252-0.697c-3.817,0-7.002,2.653-7.833,6.203c-0.996-0.431-2.09-0.697-3.252-0.697
					c-4.414,0-8.032,3.582-8.032,8.027v16.584l0.033,2.488v8.589c0,16.618,13.507,30.117,30.135,30.117
					c16.627,0,30.201-13.499,30.201-30.117v-5.538C88.463,49.152,83.684,43.646,77.412,42.486L77.412,42.486z M83.485,61.291
					c0,13.865-11.284,25.143-25.156,25.143S33.172,75.156,33.172,61.291V50.247l-0.033-2.487V33.663
					c0-1.692,1.361-3.052,3.054-3.052c1.692,0,3.053,1.36,3.053,3.052v20.199h4.978V33.663v-5.539c0-1.692,1.361-3.052,3.053-3.052
					c1.693,0,3.053,1.36,3.053,3.052v21.36h4.979v-21.36v-5.506c0-1.691,1.36-3.052,3.053-3.052c1.692,0,3.053,1.36,3.053,3.052
					v5.506v18.408h4.978V28.124c0-1.692,1.361-3.052,3.053-3.052c1.693,0,3.054,1.36,3.054,3.052V42.22v4.975v9.784
					c-6.372,2.09-10.985,8.095-10.985,15.125h4.978c0-6.035,4.912-10.943,10.952-10.943l0,0v-13.6
					c3.518,1.061,6.074,4.345,6.074,8.192v5.538L83.485,61.291L83.485,61.291z"/>
			</g>
			<g enable-background="new    ">
				<path fill="#FFFFFF" d="M109.362,82.729l1.93-0.374V69.344l-1.93-0.373v-2.191h14.431v4.968h-2.789l-0.162-2.166h-5.915v4.993
					h6.351v2.801h-6.351v4.98l1.942,0.374v2.179h-7.508V82.729z"/>
				<path fill="#FFFFFF" d="M133.355,84.908c-0.1-0.225-0.187-0.454-0.262-0.691c-0.074-0.236-0.133-0.475-0.174-0.716
					c-0.432,0.498-0.957,0.901-1.575,1.208c-0.619,0.307-1.326,0.461-2.123,0.461c-1.32,0-2.368-0.359-3.144-1.077
					s-1.164-1.695-1.164-2.933c0-1.262,0.506-2.236,1.519-2.926c1.013-0.688,2.499-1.033,4.458-1.033h1.855v-1.32
					c0-0.647-0.187-1.149-0.56-1.506c-0.374-0.357-0.926-0.536-1.656-0.536c-0.416,0-0.785,0.048-1.108,0.144
					s-0.585,0.21-0.784,0.342L128.4,75.77h-2.739l0.012-2.988c0.664-0.449,1.426-0.826,2.285-1.134
					c0.859-0.307,1.795-0.46,2.808-0.46c1.668,0,3.023,0.408,4.065,1.226c1.042,0.818,1.562,1.982,1.562,3.493v5.565
					c0,0.208,0.002,0.402,0.006,0.585c0.004,0.183,0.019,0.357,0.043,0.523l1.108,0.149v2.179H133.355z M130.205,82.48
					c0.548,0,1.046-0.118,1.494-0.355c0.448-0.236,0.797-0.533,1.046-0.89v-2.055h-1.855c-0.772,0-1.357,0.181-1.755,0.542
					c-0.398,0.36-0.598,0.795-0.598,1.301c0,0.457,0.147,0.813,0.442,1.07C129.273,82.352,129.683,82.48,130.205,82.48z"/>
				<path fill="#FFFFFF" d="M138.361,73.627v-2.191h5.316l0.149,1.781c0.432-0.647,0.973-1.147,1.625-1.501
					c0.651-0.353,1.405-0.528,2.26-0.528c0.863,0,1.602,0.19,2.216,0.572s1.079,0.959,1.395,1.73
					c0.415-0.722,0.955-1.286,1.619-1.693c0.664-0.406,1.444-0.609,2.341-0.609c1.328,0,2.376,0.458,3.144,1.375
					c0.768,0.918,1.152,2.314,1.152,4.19v5.603l1.755,0.374v2.179h-6.96v-2.179l1.569-0.374V76.74c0-1.021-0.167-1.73-0.498-2.129
					c-0.333-0.398-0.826-0.598-1.482-0.598c-0.515,0-0.961,0.114-1.338,0.342c-0.378,0.229-0.679,0.546-0.903,0.953
					c0,0.157,0.004,0.292,0.012,0.404s0.013,0.227,0.013,0.343v6.3l1.469,0.374v2.179h-6.562v-2.179l1.47-0.374V76.74
					c0-0.996-0.167-1.699-0.498-2.11c-0.333-0.411-0.831-0.616-1.494-0.616c-0.49,0-0.92,0.093-1.289,0.28
					c-0.369,0.187-0.674,0.45-0.915,0.79v7.271l1.569,0.374v2.179h-6.948v-2.179l1.756-0.374v-8.354L138.361,73.627z"/>
				<path fill="#FFFFFF" d="M162.392,82.729l1.755-0.374v-8.354l-1.942-0.374v-2.191h5.578v10.92l1.743,0.374v2.179h-7.134V82.729z
					 M167.783,68.211h-3.636v-2.727h3.636V68.211z"/>
				<path fill="#FFFFFF" d="M170.336,67.676v-2.191h5.578v16.871l1.756,0.374v2.179h-7.147v-2.179l1.756-0.374V68.049
					L170.336,67.676z"/>
				<path fill="#FFFFFF" d="M192.797,73.627l-1.257,0.188l-4.956,13.111c-0.39,0.971-0.911,1.784-1.562,2.439
					c-0.652,0.656-1.633,0.984-2.945,0.984c-0.307,0-0.596-0.025-0.865-0.075c-0.27-0.05-0.587-0.12-0.953-0.212l0.423-2.651
					c0.116,0.017,0.237,0.033,0.361,0.05c0.125,0.017,0.232,0.024,0.324,0.024c0.605,0,1.07-0.147,1.395-0.441
					c0.323-0.295,0.572-0.662,0.747-1.103l0.411-1.021l-4.271-11.095l-1.257-0.199v-2.191h6.599v2.191l-1.507,0.25l1.843,5.379
					l0.187,0.971l0.075,0.013l2.129-6.362l-1.519-0.25v-2.191h6.599V73.627z"/>
				<path fill="#FFFFFF" d="M199.97,80.027c0-0.979,0.27-1.824,0.809-2.534c0.54-0.709,1.361-1.45,2.465-2.222
					c-0.564-0.764-0.986-1.461-1.264-2.092c-0.278-0.631-0.417-1.274-0.417-1.931c0-1.436,0.448-2.583,1.345-3.442
					s2.096-1.289,3.598-1.289c1.32,0,2.393,0.409,3.219,1.227c0.826,0.817,1.239,1.808,1.239,2.97c0,0.813-0.204,1.557-0.61,2.229
					c-0.407,0.673-0.963,1.262-1.668,1.769l-1.158,0.821l3.437,4.01c0.299-0.498,0.531-1.038,0.697-1.619s0.249-1.195,0.249-1.843
					h2.714c0,1.146-0.141,2.2-0.423,3.163s-0.714,1.817-1.295,2.564l2.59,3.038l-0.025,0.062h-4.034l-0.958-1.108
					c-0.706,0.457-1.432,0.799-2.179,1.027s-1.548,0.343-2.403,0.343c-1.81,0-3.25-0.476-4.321-1.426S199.97,81.555,199.97,80.027z
					 M206.083,82.381c0.44,0,0.88-0.057,1.32-0.168c0.44-0.112,0.863-0.28,1.27-0.505l-3.735-4.333l-0.236,0.162
					c-0.424,0.398-0.712,0.786-0.866,1.164s-0.23,0.758-0.23,1.14c0,0.738,0.228,1.347,0.685,1.824S205.344,82.381,206.083,82.381z
					 M204.813,71.212c0,0.357,0.089,0.725,0.268,1.102c0.179,0.378,0.446,0.795,0.803,1.252l1.071-0.697
					c0.465-0.299,0.778-0.606,0.94-0.922c0.162-0.315,0.243-0.659,0.243-1.033c0-0.415-0.152-0.784-0.455-1.108
					c-0.303-0.323-0.7-0.485-1.189-0.485c-0.54,0-0.955,0.181-1.245,0.542C204.958,70.222,204.813,70.673,204.813,71.212z"/>
				<path fill="#FFFFFF" d="M237.124,72.893h-2.702l-0.374-2.415c-0.357-0.357-0.808-0.64-1.351-0.847
					c-0.543-0.208-1.185-0.312-1.924-0.312c-1.577,0-2.791,0.573-3.642,1.718c-0.851,1.146-1.276,2.641-1.276,4.482v0.636
					c0,1.843,0.423,3.341,1.27,4.495c0.847,1.153,2.042,1.73,3.586,1.73c0.714,0,1.368-0.104,1.961-0.312
					c0.593-0.207,1.052-0.489,1.376-0.847l0.374-2.416h2.702v3.586c-0.731,0.848-1.663,1.521-2.795,2.023
					c-1.133,0.503-2.401,0.754-3.804,0.754c-2.432,0-4.424-0.843-5.977-2.527c-1.552-1.686-2.328-3.848-2.328-6.487v-0.61
					c0-2.631,0.772-4.794,2.316-6.487s3.54-2.54,5.989-2.54c1.403,0,2.669,0.256,3.798,0.766c1.129,0.511,2.062,1.186,2.802,2.023
					V72.893z"/>
				<path fill="#FFFFFF" d="M238.879,78.048c0-2.009,0.562-3.654,1.688-4.938c1.125-1.282,2.679-1.923,4.663-1.923
					c1.992,0,3.55,0.639,4.675,1.917s1.688,2.926,1.688,4.943v0.261c0,2.026-0.562,3.676-1.688,4.95s-2.675,1.911-4.65,1.911
					c-2,0-3.562-0.637-4.688-1.911s-1.688-2.924-1.688-4.95V78.048z M242.515,78.309c0,1.229,0.216,2.215,0.647,2.958
					c0.432,0.742,1.129,1.114,2.092,1.114c0.938,0,1.625-0.374,2.061-1.121s0.654-1.73,0.654-2.951v-0.261
					c0-1.195-0.221-2.171-0.66-2.927c-0.439-0.755-1.133-1.133-2.079-1.133s-1.636,0.378-2.067,1.133
					c-0.432,0.756-0.647,1.731-0.647,2.927V78.309z"/>
				<path fill="#FFFFFF" d="M252.75,73.627v-2.191h5.316l0.149,1.781c0.432-0.647,0.974-1.147,1.625-1.501
					c0.651-0.353,1.405-0.528,2.26-0.528c0.863,0,1.603,0.19,2.216,0.572c0.615,0.382,1.08,0.959,1.395,1.73
					c0.416-0.722,0.955-1.286,1.619-1.693c0.664-0.406,1.444-0.609,2.341-0.609c1.328,0,2.376,0.458,3.144,1.375
					c0.768,0.918,1.152,2.314,1.152,4.19v5.603l1.756,0.374v2.179h-6.961v-2.179l1.569-0.374V76.74c0-1.021-0.167-1.73-0.498-2.129
					c-0.333-0.398-0.826-0.598-1.481-0.598c-0.516,0-0.961,0.114-1.339,0.342c-0.378,0.229-0.679,0.546-0.903,0.953
					c0,0.157,0.004,0.292,0.013,0.404s0.013,0.227,0.013,0.343v6.3l1.469,0.374v2.179h-6.562v-2.179l1.47-0.374V76.74
					c0-0.996-0.166-1.699-0.498-2.11s-0.83-0.616-1.494-0.616c-0.49,0-0.92,0.093-1.289,0.28c-0.369,0.187-0.674,0.45-0.915,0.79
					v7.271l1.569,0.374v2.179h-6.948v-2.179l1.756-0.374v-8.354L252.75,73.627z"/>
				<path fill="#FFFFFF" d="M276.47,73.627v-2.191h5.316l0.149,1.781c0.432-0.647,0.973-1.147,1.625-1.501
					c0.651-0.353,1.404-0.528,2.26-0.528c0.863,0,1.602,0.19,2.217,0.572c0.613,0.382,1.078,0.959,1.395,1.73
					c0.414-0.722,0.954-1.286,1.618-1.693c0.664-0.406,1.444-0.609,2.341-0.609c1.328,0,2.376,0.458,3.145,1.375
					c0.768,0.918,1.151,2.314,1.151,4.19v5.603l1.755,0.374v2.179h-6.96v-2.179l1.569-0.374V76.74c0-1.021-0.166-1.73-0.498-2.129
					s-0.826-0.598-1.482-0.598c-0.514,0-0.961,0.114-1.338,0.342c-0.378,0.229-0.679,0.546-0.902,0.953
					c0,0.157,0.004,0.292,0.012,0.404s0.013,0.227,0.013,0.343v6.3l1.47,0.374v2.179h-6.562v-2.179l1.47-0.374V76.74
					c0-0.996-0.167-1.699-0.498-2.11c-0.333-0.411-0.831-0.616-1.494-0.616c-0.49,0-0.92,0.093-1.289,0.28
					c-0.369,0.187-0.675,0.45-0.915,0.79v7.271l1.568,0.374v2.179h-6.947v-2.179l1.756-0.374v-8.354L276.47,73.627z"/>
				<path fill="#FFFFFF" d="M310.038,83.202c-0.432,0.631-0.965,1.117-1.601,1.457c-0.635,0.34-1.359,0.511-2.172,0.511
					c-1.42,0-2.532-0.455-3.337-1.363c-0.806-0.909-1.208-2.322-1.208-4.24v-5.565l-1.481-0.374v-2.191h1.481h3.636v8.156
					c0,0.979,0.163,1.683,0.491,2.11s0.816,0.642,1.464,0.642c0.572,0,1.068-0.094,1.487-0.28c0.42-0.188,0.762-0.455,1.027-0.804
					v-7.259l-1.594-0.374v-2.191h1.594h3.636v10.92l1.632,0.374v2.179h-4.819L310.038,83.202z"/>
				<path fill="#FFFFFF" d="M316.325,82.729l1.743-0.374v-8.354l-1.93-0.374v-2.191h5.316l0.162,1.931
					c0.448-0.689,1-1.225,1.656-1.606c0.655-0.382,1.391-0.572,2.203-0.572c1.361,0,2.424,0.427,3.188,1.282
					c0.764,0.854,1.146,2.195,1.146,4.021v5.864l1.742,0.374v2.179h-6.947v-2.179l1.557-0.374v-5.852
					c0-0.905-0.184-1.546-0.548-1.924c-0.366-0.378-0.917-0.566-1.656-0.566c-0.481,0-0.913,0.098-1.295,0.292
					c-0.382,0.195-0.702,0.472-0.959,0.828v7.222l1.47,0.374v2.179h-6.849V82.729z"/>
				<path fill="#FFFFFF" d="M332.6,82.729l1.755-0.374v-8.354l-1.942-0.374v-2.191h5.578v10.92l1.743,0.374v2.179H332.6V82.729z
					 M337.99,68.211h-3.636v-2.727h3.636V68.211z"/>
				<path fill="#FFFFFF" d="M346.295,68.137v3.299h2.366v2.553h-2.366v6.861c0,0.522,0.108,0.896,0.324,1.12
					s0.506,0.336,0.871,0.336c0.25,0,0.467-0.01,0.654-0.031c0.187-0.021,0.396-0.056,0.629-0.105l0.311,2.627
					c-0.406,0.125-0.809,0.218-1.207,0.28s-0.83,0.094-1.295,0.094c-1.254,0-2.219-0.345-2.895-1.033
					c-0.678-0.689-1.016-1.781-1.016-3.275v-6.873h-1.979v-2.553h1.979v-3.299H346.295z"/>
				<path fill="#FFFFFF" d="M364.387,73.627l-1.258,0.188l-4.955,13.111c-0.391,0.971-0.911,1.784-1.562,2.439
					c-0.652,0.656-1.633,0.984-2.945,0.984c-0.307,0-0.596-0.025-0.865-0.075s-0.587-0.12-0.952-0.212l0.423-2.651
					c0.117,0.017,0.237,0.033,0.361,0.05c0.125,0.017,0.232,0.024,0.324,0.024c0.605,0,1.07-0.147,1.395-0.441
					c0.323-0.295,0.572-0.662,0.747-1.103l0.411-1.021l-4.271-11.095l-1.258-0.199v-2.191h6.6v2.191l-1.507,0.25l1.843,5.379
					l0.188,0.971l0.074,0.013l2.129-6.362l-1.519-0.25v-2.191h6.599V73.627z"/>
				<path fill="#FFFFFF" d="M385.467,72.569h-2.727l-0.473-2.49c-0.316-0.199-0.776-0.374-1.383-0.523
					c-0.605-0.149-1.249-0.224-1.93-0.224c-0.996,0-1.766,0.21-2.31,0.629s-0.815,0.961-0.815,1.625
					c0,0.614,0.284,1.118,0.854,1.513c0.568,0.394,1.55,0.812,2.944,1.251c2,0.557,3.517,1.291,4.551,2.204
					c1.033,0.913,1.55,2.112,1.55,3.599c0,1.552-0.614,2.776-1.843,3.673s-2.847,1.345-4.855,1.345
					c-1.437,0-2.733-0.229-3.892-0.686c-1.158-0.456-2.123-1.087-2.895-1.893v-3.785h2.814l0.386,2.578
					c0.364,0.299,0.86,0.546,1.487,0.74c0.627,0.195,1.326,0.293,2.099,0.293c0.996,0,1.753-0.203,2.272-0.61
					c0.518-0.406,0.777-0.95,0.777-1.631c0-0.697-0.246-1.258-0.74-1.681c-0.494-0.424-1.359-0.822-2.596-1.195
					c-2.15-0.623-3.777-1.361-4.881-2.217c-1.104-0.854-1.656-2.025-1.656-3.511c0-1.47,0.622-2.671,1.867-3.604
					c1.245-0.935,2.811-1.414,4.694-1.438c1.395,0,2.665,0.212,3.81,0.635c1.146,0.424,2.109,0.988,2.889,1.693V72.569z"/>
				<path fill="#FFFFFF" d="M393.697,85.17c-1.942,0-3.495-0.623-4.657-1.868s-1.743-2.826-1.743-4.743v-0.498
					c0-2.001,0.55-3.648,1.65-4.943c1.1-1.295,2.574-1.938,4.426-1.93c1.818,0,3.229,0.547,4.233,1.643s1.507,2.578,1.507,4.445
					v1.98h-8.043l-0.025,0.074c0.066,0.889,0.363,1.619,0.891,2.191s1.242,0.859,2.147,0.859c0.806,0,1.474-0.081,2.005-0.243
					s1.111-0.417,1.743-0.766l0.983,2.241c-0.557,0.44-1.276,0.81-2.16,1.108C395.77,85.021,394.784,85.17,393.697,85.17z
					 M393.373,73.988c-0.672,0-1.203,0.258-1.594,0.772s-0.631,1.191-0.722,2.029l0.037,0.062h4.458v-0.324
					c0-0.771-0.182-1.388-0.542-1.849C394.649,74.219,394.104,73.988,393.373,73.988z"/>
				<path fill="#FFFFFF" d="M401.105,82.729l1.744-0.374v-8.354l-1.931-0.374v-2.191h5.317l0.161,1.968
					c0.315-0.697,0.722-1.241,1.22-1.631c0.498-0.391,1.075-0.585,1.73-0.585c0.191,0,0.393,0.014,0.604,0.043
					s0.388,0.064,0.529,0.105l-0.386,3.312l-1.494-0.037c-0.531,0-0.971,0.104-1.32,0.311c-0.348,0.208-0.614,0.503-0.797,0.885
					v6.549l1.744,0.374v2.179h-7.123V82.729z"/>
				<path fill="#FFFFFF" d="M417.504,73.627l-1.27,0.237l1.779,6.026l0.237,1.27h0.075l0.262-1.27l1.755-6.014l-1.295-0.25v-2.191
					h6.114v2.191l-1.172,0.188l-3.971,11.094h-3.475l-3.984-11.094l-1.17-0.188v-2.191h6.113V73.627z"/>
				<path fill="#FFFFFF" d="M426.207,82.729l1.756-0.374v-8.354l-1.942-0.374v-2.191h5.578v10.92l1.743,0.374v2.179h-7.135V82.729z
					 M431.599,68.211h-3.636v-2.727h3.636V68.211z"/>
				<path fill="#FFFFFF" d="M440.862,82.381c0.647,0,1.167-0.188,1.557-0.566s0.585-0.882,0.585-1.514h3.287l0.037,0.075
					c0.033,1.361-0.477,2.501-1.531,3.418s-2.365,1.376-3.935,1.376c-2.009,0-3.557-0.635-4.644-1.905
					c-1.088-1.271-1.632-2.901-1.632-4.894v-0.373c0-1.984,0.559-3.615,1.675-4.894s2.708-1.917,4.775-1.917
					c1.087,0,2.062,0.161,2.926,0.485c0.863,0.323,1.581,0.78,2.154,1.369l0.05,3.599h-2.951l-0.598-2.104
					c-0.183-0.157-0.407-0.288-0.673-0.392c-0.266-0.104-0.568-0.156-0.908-0.156c-1.029,0-1.756,0.374-2.18,1.121
					c-0.423,0.747-0.635,1.71-0.635,2.889v0.373c0,1.204,0.195,2.173,0.586,2.907C439.198,82.014,439.883,82.381,440.862,82.381z"/>
				<path fill="#FFFFFF" d="M454.422,85.17c-1.942,0-3.495-0.623-4.657-1.868s-1.743-2.826-1.743-4.743v-0.498
					c0-2.001,0.55-3.648,1.65-4.943c1.1-1.295,2.574-1.938,4.426-1.93c1.818,0,3.229,0.547,4.233,1.643s1.507,2.578,1.507,4.445
					v1.98h-8.043l-0.025,0.074c0.066,0.889,0.363,1.619,0.891,2.191s1.242,0.859,2.147,0.859c0.806,0,1.474-0.081,2.005-0.243
					s1.111-0.417,1.743-0.766l0.983,2.241c-0.557,0.44-1.276,0.81-2.16,1.108C456.494,85.021,455.509,85.17,454.422,85.17z
					 M454.098,73.988c-0.672,0-1.203,0.258-1.594,0.772s-0.631,1.191-0.722,2.029l0.037,0.062h4.458v-0.324
					c0-0.771-0.182-1.388-0.542-1.849C455.374,74.219,454.828,73.988,454.098,73.988z"/>
				<path fill="#FFFFFF" d="M472.551,76.068h-2.441l-0.386-1.682c-0.249-0.199-0.562-0.365-0.94-0.498
					c-0.377-0.133-0.795-0.199-1.251-0.199c-0.64,0-1.146,0.144-1.519,0.43c-0.374,0.286-0.561,0.646-0.561,1.077
					c0,0.407,0.178,0.745,0.535,1.015s1.071,0.509,2.142,0.716c1.669,0.332,2.905,0.82,3.711,1.463
					c0.805,0.644,1.208,1.53,1.208,2.659c0,1.212-0.521,2.201-1.562,2.969c-1.043,0.769-2.414,1.152-4.115,1.152
					c-1.038,0-1.99-0.151-2.857-0.455c-0.868-0.303-1.638-0.736-2.311-1.301l-0.037-3.025h2.54l0.498,1.756
					c0.216,0.183,0.511,0.317,0.884,0.404c0.374,0.087,0.764,0.131,1.171,0.131c0.738,0,1.301-0.133,1.687-0.398
					c0.387-0.266,0.579-0.627,0.579-1.084c0-0.398-0.194-0.742-0.585-1.033c-0.391-0.29-1.108-0.548-2.154-0.771
					c-1.586-0.324-2.783-0.804-3.592-1.438c-0.81-0.635-1.214-1.5-1.214-2.596c0-1.129,0.464-2.103,1.395-2.92
					c0.929-0.817,2.253-1.227,3.972-1.227c1.046,0,2.035,0.142,2.97,0.423c0.934,0.283,1.666,0.644,2.197,1.084L472.551,76.068z"/>
			</g>
			<g id="Brandon" transform="translate(108.860497, 25.000000)" sketch:type="MSShapeGroup">
				<path id="Shape_1_" fill="#FFFFFF" d="M0.616,1.648c0-0.426,0.331-0.757,0.757-0.757h16.648c0.425,0,0.757,0.378,0.757,0.757
					v4.398c0,0.426-0.332,0.757-0.757,0.757H6.907v5.77h9.175c0.378,0,0.757,0.378,0.757,0.757v4.398
					c0,0.426-0.378,0.757-0.757,0.757H6.907v9.789c0,0.426-0.378,0.757-0.757,0.757H1.42c-0.426,0-0.757-0.38-0.757-0.757V1.648
					H0.616z"/>
				<path id="Shape_2_" fill="#FFFFFF" d="M23.271,1.648c0-0.426,0.331-0.757,0.756-0.757h12.014c4.824,0,8.75,3.878,8.75,8.702
					c0,3.688-2.459,6.668-5.959,8.086l5.486,10.215c0.284,0.52,0,1.182-0.662,1.182h-5.345c-0.331,0-0.567-0.189-0.662-0.378
					L32.352,18.01h-2.791v10.262c0,0.426-0.378,0.757-0.757,0.757h-4.777c-0.425,0-0.756-0.379-0.756-0.757V1.648L23.271,1.648z
					 M35.521,12.903c1.655,0,3.074-1.513,3.074-3.216c0-1.702-1.419-3.074-3.074-3.074h-5.959v6.29H35.521L35.521,12.903z"/>
				<path id="Shape_3_" fill="#FFFFFF" d="M46.588,27.989l12.581-27.05c0.142-0.236,0.425-0.426,0.662-0.426h0.426
					c0.284,0,0.567,0.189,0.662,0.426L73.5,27.989c0.237,0.52-0.094,1.041-0.662,1.041h-4.446c-0.709,0-1.041-0.236-1.419-0.993
					l-1.466-3.169H54.581l-1.466,3.216c-0.189,0.475-0.662,0.946-1.466,0.946H47.25C46.636,29.029,46.352,28.509,46.588,27.989
					L46.588,27.989z M63.095,19.382l-3.074-6.621l0,0l-3.027,6.621H63.095L63.095,19.382z"/>
				<path id="Shape_4_" fill="#FFFFFF" d="M76.764,1.222c0-0.426,0.378-0.709,0.757-0.709h0.993L94.547,15.93h0.047V1.648
					c0-0.426,0.331-0.757,0.757-0.757h4.872c0.426,0,0.757,0.378,0.757,0.757v27.05c0,0.425-0.378,0.709-0.757,0.709H99.56
					c-0.142,0-0.426-0.142-0.521-0.188L83.148,13.281h-0.047v14.991c0,0.426-0.331,0.757-0.757,0.757h-4.777
					c-0.425,0-0.756-0.379-0.756-0.757L76.764,1.222L76.764,1.222z"/>
				<path id="Shape_5_" fill="#FFFFFF" d="M107.885,1.837c0-0.52,0.426-0.946,0.946-0.946h4.683c0.52,0,0.946,0.426,0.946,0.946
					V12.43l8.939-11.113c0.142-0.189,0.521-0.426,0.757-0.426h5.061c0.757,0,1.183,0.898,0.709,1.466l-9.412,11.775l10.264,13.336
					c0.426,0.614,0,1.466-0.757,1.466h-5.534c-0.284,0-0.662-0.142-0.709-0.283l-9.27-12.626v11.964c0,0.52-0.426,0.945-0.946,0.945
					h-4.683c-0.567,0-0.946-0.426-0.946-0.945V1.837H107.885z"/>
				<path id="Shape_6_" fill="#FFFFFF" d="M134.938,1.648c0-0.426,0.33-0.757,0.757-0.757h4.776c0.426,0,0.756,0.378,0.756,0.757
					v21.47h9.603c0.427,0,0.757,0.378,0.757,0.757v4.398c0,0.426-0.33,0.757-0.757,0.757h-15.135c-0.427,0-0.757-0.38-0.757-0.757
					V1.648L134.938,1.648z"/>
				<path id="Shape_7_" fill="#FFFFFF" d="M155.466,1.648c0-0.426,0.377-0.757,0.756-0.757h4.824c0.379,0,0.758,0.378,0.758,0.757
					v26.625c0,0.426-0.379,0.757-0.758,0.757h-4.824c-0.426,0-0.756-0.38-0.756-0.757V1.648L155.466,1.648z"/>
				<path id="Shape_8_" fill="#FFFFFF" d="M168.708,1.222c0-0.426,0.379-0.709,0.758-0.709h0.992l16.033,15.417h0.048V1.648
					c0-0.426,0.331-0.757,0.757-0.757h4.824c0.426,0,0.756,0.378,0.756,0.757v27.05c0,0.425-0.378,0.709-0.756,0.709h-0.615
					c-0.142,0-0.426-0.142-0.52-0.188l-15.893-15.938h-0.048v14.991c0,0.426-0.331,0.757-0.757,0.757h-4.775
					c-0.427,0-0.759-0.379-0.759-0.757L168.708,1.222L168.708,1.222z"/>
				<path id="Shape_9_" fill="#FFFFFF" d="M221.16,0.466c4.021,0,7,1.229,9.743,3.736c0.378,0.331,0.378,0.804,0.047,1.135
					L227.829,8.6c-0.284,0.284-0.71,0.284-0.993,0c-1.467-1.324-3.453-2.034-5.438-2.034c-4.54,0-7.898,3.783-7.898,8.276
					c0,4.445,3.358,8.182,7.898,8.182c1.892,0,3.926-0.662,5.392-1.939c0.284-0.236,0.804-0.236,1.041,0.047l3.121,3.358
					c0.284,0.284,0.236,0.804-0.047,1.088c-2.743,2.648-6.196,3.878-9.791,3.878c-8.04,0-14.521-6.385-14.521-14.424
					C206.64,6.944,213.119,0.466,221.16,0.466L221.16,0.466z"/>
				<path id="Shape_10_" fill="#FFFFFF" d="M248.024,0.466c8.04,0,14.473,6.479,14.473,14.518s-6.433,14.423-14.473,14.423
					s-14.426-6.384-14.426-14.423S239.984,0.466,248.024,0.466L248.024,0.466z M248.024,22.976c4.444,0,8.04-3.641,8.04-7.992
					c0-4.445-3.643-8.087-8.04-8.087c-4.398,0-7.993,3.642-7.993,8.087C240.031,19.382,243.626,22.976,248.024,22.976
					L248.024,22.976z"/>
				<path id="Shape_11_" fill="#FFFFFF" d="M266.943,1.648c0-0.426,0.378-0.757,0.757-0.757h4.966c0.426,0,0.757,0.378,0.757,0.757
					v16.268c0,2.837,2.081,5.06,4.967,5.06c2.885,0,5.014-2.27,5.014-5.06V1.648c0-0.426,0.331-0.757,0.757-0.757h4.966
					c0.426,0,0.757,0.378,0.757,0.757v16.599c0,6.1-5.154,11.16-11.493,11.16c-6.289,0-11.397-5.06-11.397-11.16V1.648H266.943z"/>
				<path id="Shape_12_" fill="#FFFFFF" d="M296.314,1.222c0-0.426,0.378-0.709,0.757-0.709h0.993l16.032,15.417h0.048V1.648
					c0-0.426,0.331-0.757,0.757-0.757h4.824c0.426,0,0.757,0.378,0.757,0.757v27.05c0,0.425-0.378,0.709-0.757,0.709h-0.662
					c-0.143,0-0.427-0.142-0.521-0.188l-15.845-15.938h-0.048v14.991c0,0.426-0.33,0.757-0.756,0.757h-4.777
					c-0.426,0-0.757-0.379-0.757-0.757L296.314,1.222L296.314,1.222z"/>
				<path id="Shape_13_" fill="#FFFFFF" d="M331.03,6.803h-5.771c-0.426,0-0.757-0.378-0.757-0.757V1.648
					c0-0.426,0.331-0.757,0.757-0.757h17.831c0.425,0,0.757,0.378,0.757,0.757v4.398c0,0.426-0.332,0.757-0.757,0.757h-5.771v21.47
					c0,0.426-0.379,0.757-0.757,0.757h-4.824c-0.379,0-0.757-0.38-0.757-0.757V6.803H331.03z"/>
				<path id="Shape_14_" fill="#FFFFFF" d="M354.489,15.457l-8.893-13.43c-0.332-0.521,0-1.183,0.661-1.183h5.25
					c0.331,0,0.521,0.189,0.662,0.378l5.534,8.276l5.581-8.229c0.142-0.142,0.283-0.378,0.662-0.378h5.25
					c0.662,0,0.944,0.662,0.662,1.182l-8.986,13.383v12.816c0,0.426-0.379,0.757-0.757,0.757h-4.777
					c-0.426,0-0.757-0.379-0.757-0.757V15.457H354.489z"/>
			</g>
		</g>
	</g>
</g>
</svg>
